<?xml version="1.0" standalone="no"?>
<!DOCTYPE svg PUBLIC "-//W3C//DTD SVG 20010904//EN"
 "http://www.w3.org/TR/2001/REC-SVG-20010904/DTD/svg10.dtd">
<svg version="1.0" xmlns="http://www.w3.org/2000/svg"
 width="1024.000000pt" height="1536.000000pt" viewBox="0 0 1024.000000 1536.000000"
 preserveAspectRatio="xMidYMid meet">

<g transform="translate(0.000000,1536.000000) scale(0.100000,-0.100000)"
fill="#000000" stroke="none">
<path d="M5725 11067 c-31 -31 -35 -41 -35 -87 0 -46 4 -56 33 -85 26 -26 44
-35 83 -39 286 -33 492 -102 686 -229 385 -250 611 -628 643 -1074 4 -48 11
-100 16 -114 21 -56 115 -77 175 -40 48 29 57 70 44 193 -45 413 -195 743
-460 1008 -295 295 -664 469 -1052 496 l-97 7 -36 -36z"/>
<path d="M5731 10543 c-79 -80 -37 -194 77 -208 99 -12 250 -54 324 -90 92
-45 215 -140 281 -217 102 -119 187 -313 202 -458 11 -101 23 -136 56 -164 50
-42 151 -29 179 23 15 29 12 147 -6 241 -65 344 -304 650 -629 806 -124 59
-220 84 -347 91 l-107 6 -30 -30z"/>
<path d="M3116 10020 c-63 -25 -129 -89 -164 -160 l-27 -55 0 -985 0 -985 23
-43 c34 -63 93 -124 154 -158 l53 -29 698 -3 697 -3 0 -164 0 -165 -321 0
-321 0 -29 -31 c-24 -26 -29 -40 -29 -80 0 -40 5 -54 31 -84 l31 -35 765 0
765 0 29 29 c45 45 39 132 -12 180 -22 20 -32 21 -351 21 l-328 0 0 165 0 164
653 3 652 3 46 23 c75 37 125 87 161 160 l33 67 3 607 c2 539 1 611 -13 632
-38 57 -139 61 -187 6 l-28 -30 0 -270 0 -270 -370 0 c-408 0 -425 -2 -454
-59 -14 -25 -16 -78 -16 -336 l0 -306 -1014 3 c-1012 3 -1015 3 -1043 24 -15
11 -33 36 -40 55 -19 54 -18 1778 1 1823 30 71 -57 66 1124 66 1171 0 1104 -4
1138 62 24 45 14 112 -22 149 l-28 29 -1105 0 c-1068 -1 -1108 -2 -1155 -20z
m2984 -1915 c0 -111 -4 -194 -11 -208 -6 -13 -25 -32 -42 -43 -29 -17 -57 -19
-289 -22 l-258 -3 0 230 0 231 300 0 300 0 0 -185z"/>
<path d="M5737 10020 c-36 -29 -52 -83 -38 -129 16 -56 46 -77 134 -94 59 -12
90 -25 128 -52 83 -62 115 -123 144 -277 15 -78 114 -114 185 -66 50 34 59 78
38 180 -25 117 -66 198 -145 279 -36 38 -88 83 -115 101 -116 74 -275 102
-331 58z"/>
<path d="M1135 6232 c-73 -25 -110 -55 -139 -114 -56 -113 -17 -231 96 -289
21 -11 90 -35 154 -53 137 -40 164 -60 164 -121 0 -56 -34 -91 -96 -101 -99
-15 -181 19 -208 86 l-16 40 -66 0 -66 0 7 -47 c9 -59 24 -89 67 -130 93 -89
290 -104 416 -32 119 68 148 234 59 335 -40 46 -61 56 -207 99 -154 45 -180
62 -180 116 0 62 49 99 131 99 77 0 149 -52 149 -106 0 -22 4 -24 58 -24 83 0
88 6 73 76 -26 114 -136 185 -287 184 -32 -1 -82 -8 -109 -18z"/>
<path d="M4015 6232 c-109 -38 -165 -111 -165 -216 0 -70 20 -117 68 -156 36
-29 72 -43 242 -94 106 -31 130 -52 130 -110 0 -32 -6 -48 -23 -64 -82 -77
-264 -39 -284 59 -5 29 -6 29 -74 29 l-69 0 0 -37 c0 -126 128 -216 305 -216
180 1 294 95 295 244 0 121 -68 185 -254 234 -57 15 -122 37 -143 49 -33 19
-38 26 -41 64 -3 35 1 46 24 67 32 29 78 40 139 30 54 -8 95 -40 110 -86 12
-34 12 -34 76 -34 l64 0 -3 49 c-3 61 -34 118 -83 151 -76 53 -219 70 -314 37z"/>
<path d="M8830 6233 c-58 -21 -123 -65 -154 -106 -125 -164 -122 -451 7 -594
123 -135 351 -146 491 -22 41 35 96 140 96 181 l0 28 -75 0 c-69 0 -75 -2 -75
-20 0 -43 -45 -102 -98 -129 -34 -18 -125 -15 -167 5 -76 36 -115 122 -116
254 -2 174 78 283 207 283 76 0 123 -28 154 -91 l25 -51 73 0 74 -1 -7 33
c-12 59 -56 136 -98 172 -78 67 -234 94 -337 58z"/>
<path d="M1642 5838 l3 -393 73 -3 72 -3 0 186 c0 208 8 243 59 269 61 32 130
15 156 -39 12 -26 15 -72 15 -224 l0 -191 71 0 70 0 -3 233 c-3 219 -4 234
-26 275 -27 50 -69 79 -129 88 -73 11 -130 -3 -174 -43 l-39 -35 0 136 0 136
-75 0 -75 0 2 -392z"/>
<path d="M7302 5838 l3 -393 73 -3 72 -3 0 151 0 151 71 -3 71 -3 80 -147 80
-148 84 0 c46 0 84 2 84 4 0 6 -141 253 -164 288 -18 27 -18 28 6 37 80 30
127 110 128 214 0 106 -38 173 -125 220 -37 20 -57 22 -253 25 l-212 3 2 -393z
m332 263 c67 -11 106 -53 106 -114 0 -96 -47 -127 -192 -127 l-98 0 0 125 0
125 68 -1 c37 0 89 -4 116 -8z"/>
<path d="M7940 6165 l0 -64 110 4 110 4 2 -332 3 -332 72 -3 73 -3 2 333 3
333 113 -2 112 -1 0 64 0 64 -300 0 -300 0 0 -65z"/>
<path d="M2419 6026 c-25 -6 -60 -23 -78 -35 -35 -25 -70 -90 -71 -128 0 -22
4 -23 65 -23 61 0 65 2 79 28 8 15 26 33 41 40 32 15 90 16 116 2 36 -20 66
-110 37 -110 -172 -5 -279 -36 -321 -91 -40 -54 -35 -166 10 -220 35 -42 82
-60 153 -60 63 -1 107 17 153 59 l27 26 0 -37 0 -37 66 0 66 0 -4 223 c-3 215
-4 223 -28 267 -54 95 -175 133 -311 96z m201 -352 c0 -78 -54 -134 -130 -134
-42 0 -69 16 -80 46 -25 64 19 100 135 114 33 4 63 8 68 9 4 0 7 -15 7 -35z"/>
<path d="M3084 6026 c-17 -8 -42 -31 -55 -52 l-24 -39 -3 48 -3 48 -67 -3
c-37 -2 -66 -6 -64 -10 1 -5 2 -136 2 -291 l0 -284 70 -2 70 -2 0 170 c0 238
18 276 136 288 l55 6 -3 66 -3 66 -40 2 c-22 2 -54 -3 -71 -11z"/>
<path d="M3430 6031 c-76 -23 -136 -78 -172 -156 -32 -71 -32 -217 1 -290 40
-90 99 -134 205 -154 113 -21 235 32 282 121 27 51 21 58 -51 58 -60 0 -68 -3
-90 -27 -21 -25 -30 -28 -89 -28 -60 0 -68 3 -96 30 -18 19 -33 46 -36 67 l-6
36 197 -5 198 -5 -5 83 c-7 143 -60 226 -167 264 -46 16 -129 19 -171 6z m129
-124 c30 -15 58 -53 67 -89 l6 -28 -126 0 c-81 0 -126 4 -126 10 0 25 42 91
68 104 33 19 79 20 111 3z"/>
<path d="M4687 6026 c-126 -45 -196 -167 -184 -322 9 -123 58 -203 152 -249
144 -71 332 -3 373 134 19 61 18 61 -57 61 -68 0 -69 -1 -79 -30 -25 -71 -134
-91 -191 -36 -73 70 -65 260 12 311 34 22 98 23 131 2 15 -10 34 -34 43 -52
17 -35 17 -35 86 -35 l70 0 -7 31 c-17 86 -82 161 -160 184 -61 18 -138 19
-189 1z"/>
<path d="M5332 6025 c-17 -8 -42 -30 -53 -50 -12 -19 -23 -35 -26 -35 -2 0 -3
19 -1 43 l3 42 -68 3 -67 3 0 -296 0 -296 68 3 67 3 5 185 c4 165 7 188 25
212 26 35 76 58 125 58 l40 0 0 70 0 70 -42 0 c-24 -1 -58 -7 -76 -15z"/>
<path d="M5667 6029 c-54 -16 -130 -88 -157 -151 -45 -103 -36 -256 19 -339
62 -91 182 -133 295 -104 57 15 108 43 134 75 22 27 51 87 45 94 -4 3 -33 6
-66 6 -52 0 -64 -4 -94 -30 -59 -52 -157 -37 -197 30 -9 16 -16 39 -16 52 l0
23 196 -3 197 -2 -6 80 c-14 175 -98 269 -247 276 -36 2 -82 -2 -103 -7z m148
-129 c29 -18 41 -36 59 -92 4 -15 -8 -17 -120 -20 -120 -3 -124 -2 -124 18 0
28 40 86 70 101 36 18 78 16 115 -7z"/>
<path d="M6261 6028 c-63 -14 -144 -96 -165 -168 -18 -61 -21 -196 -6 -252 16
-57 70 -120 130 -152 45 -25 65 -29 124 -29 111 1 185 40 230 122 14 27 26 51
26 55 0 3 -30 6 -66 6 -60 0 -68 -3 -96 -30 -25 -25 -37 -30 -78 -30 -27 0
-60 5 -73 11 -27 12 -67 76 -67 106 0 18 9 19 193 19 l192 -1 -1 71 c-1 206
-141 317 -343 272z m134 -122 c32 -14 54 -43 69 -93 l7 -23 -125 0 c-86 0
-126 4 -126 11 0 26 45 89 74 103 39 19 58 20 101 2z"/>
<path d="M6915 6026 c-17 -7 -43 -28 -58 -45 l-27 -33 0 41 0 41 -70 0 -70 0
0 -295 0 -295 70 0 70 0 0 173 c0 94 5 189 10 209 27 96 155 120 203 38 14
-24 17 -59 17 -224 l0 -196 71 0 71 0 -4 233 c-3 253 -5 263 -65 320 -49 46
-152 62 -218 33z"/>
</g>
</svg>
